<svg width="120" height="120" viewBox="0 0 120 120" fill="none" xmlns="http://www.w3.org/2000/svg">
<path d="M14 11L41 24.5L27.5 32.5L16.5 45.5L14 11Z" fill="#E59917"/>
<path d="M108 11L81 24.3043L94.5 32.1884L105.5 45L108 11Z" fill="#E59917"/>
<ellipse cx="61.5" cy="66.5" rx="51.5" ry="45.5" fill="#F6AE31"/>
<path d="M110 79C110 95.0163 87.8381 112 60.5 112C33.1619 112 11 95.0163 11 79C11 68.8195 10.4541 65.1744 24 60C31.765 57.0339 50.5389 68 60.5 68C70.4611 68 90.735 57.0339 98.5 60C112.046 65.1744 110 68.8195 110 79Z" fill="#D9D9D9"/>
<ellipse cx="60" cy="52" rx="12" ry="16" fill="#EFEFEF"/>
<ellipse cx="60" cy="61" rx="4" ry="5" fill="#5C5C5C"/>
<ellipse cx="83" cy="59" rx="12" ry="16" fill="#EFEFEF"/>
<ellipse cx="83" cy="68" rx="4" ry="5" fill="#5C5C5C"/>
<ellipse cx="37" cy="60" rx="12" ry="16" fill="#EFEFEF"/>
<ellipse cx="37" cy="69" rx="4" ry="5" fill="#5C5C5C"/>
<path d="M37 81.5C37 82.3284 29.6127 79.5 20.5 79.5C11.3873 79.5 4 82.3284 4 81.5C4 80.6716 11.3873 77.5 20.5 77.5C29.6127 77.5 37 80.6716 37 81.5Z" fill="#636363"/>
<path d="M38.1633 87.8001C38.3044 88.5872 31.5122 87.0318 23.7279 88.4278C15.9437 89.8238 10.1153 93.6427 9.97411 92.8556C9.83296 92.0686 15.603 87.9238 23.3872 86.5277C31.1714 85.1317 38.0221 87.0131 38.1633 87.8001Z" fill="#636363"/>
<path d="M88 81.817C88 82.8146 94.4919 79.4085 102.5 79.4085C110.508 79.4085 117 82.8146 117 81.817C117 80.8194 110.508 77 102.5 77C94.4919 77 88 80.8194 88 81.817Z" fill="#636363"/>
<path d="M87.0227 87.8001C86.8989 88.5872 92.8589 87.0318 99.6893 88.4278C106.52 89.8238 111.634 93.6427 111.758 92.8556C111.882 92.0686 106.819 87.9238 99.9883 86.5277C93.1579 85.1317 87.1466 87.0131 87.0227 87.8001Z" fill="#636363"/>
<path d="M62 84.9376C67.6065 84.2394 72 77.869 72 75C72 71.9624 67.0751 70 61 70C54.9249 70 50 71.9624 50 75C50 77.869 54.3935 84.2394 60 84.9376V90.1914C59.8164 90.2687 59.6107 90.3644 59.3857 90.4691C58.3907 90.9322 57.0171 91.5715 55.5 91.5715C53.9829 91.5715 52.6093 90.9322 51.6143 90.4691C50.617 90.005 50 89.7179 50 90.4287C50 91.8488 52.4624 93 55.5 93C58.1176 93 60.3081 92.1451 60.8638 91H61.1362C61.6919 92.1451 63.8824 93 66.5 93C69.5376 93 72 91.8488 72 90.4287C72 89.7179 71.383 90.005 70.3857 90.4691C69.3907 90.9322 68.0171 91.5715 66.5 91.5715C64.9829 91.5715 63.6093 90.9322 62.6143 90.4691C62.3893 90.3644 62.1836 90.2687 62 90.1914V84.9376Z" fill="#646464"/>
<path d="M71 32.5C71 33.3284 66.299 29.5 60.5 29.5C54.701 29.5 50 33.3284 50 32.5C50 31.6716 54.701 28 60.5 28C66.299 28 71 31.6716 71 32.5Z" fill="#E59917"/>
<path d="M94.3459 43.4135C94.0193 44.1749 91.2081 38.8034 85.8786 36.5175C80.5492 34.2316 74.7197 35.897 75.0463 35.1356C75.3728 34.3743 81.1405 32.8531 86.4699 35.139C91.7994 37.4248 94.6725 42.6522 94.3459 43.4135Z" fill="#E59917"/>
<path d="M44.4365 33.9084C44.8507 34.6259 38.8653 33.6609 33.8433 36.5604C28.8212 39.4599 26.6642 45.1259 26.25 44.4084C25.8358 43.691 28.0712 38.1608 33.0933 35.2613C38.1153 32.3618 44.0223 33.191 44.4365 33.9084Z" fill="#E59917"/>
</svg>
